<?xml version="1.0" encoding="iso-8859-1"?>
<!-- Generator: Adobe Illustrator 19.0.0, SVG Export Plug-In . SVG Version: 6.00 Build 0)  -->
<svg version="1.1" id="Capa_1" xmlns="http://www.w3.org/2000/svg" xmlns:xlink="http://www.w3.org/1999/xlink" x="0px" y="0px"
	 viewBox="0 0 469.333 469.333" style="enable-background:new 0 0 469.333 469.333;" xml:space="preserve">
<g>
	<g>
		<g>
			<path d="M330.667,234.667c41.28,0,74.667-33.493,74.667-74.667s-33.387-74.667-74.667-74.667C289.493,85.333,256,118.827,256,160
				C256,201.173,289.493,234.667,330.667,234.667z M330.667,117.333c23.573,0,42.667,19.093,42.667,42.667
				c0,23.573-19.093,42.667-42.667,42.667C307.093,202.667,288,183.573,288,160C288,136.427,307.093,117.333,330.667,117.333z"/>
			<path d="M138.667,234.667c41.28,0,74.667-33.493,74.667-74.667s-33.387-74.667-74.667-74.667C97.493,85.333,64,118.827,64,160
				C64,201.173,97.493,234.667,138.667,234.667z M138.667,117.333c23.573,0,42.667,19.093,42.667,42.667
				c0,23.573-19.093,42.667-42.667,42.667S96,183.573,96,160C96,136.427,115.093,117.333,138.667,117.333z"/>
			<path d="M330.667,256c-25.707,0-65.6,7.147-96,21.44c-30.4-14.293-70.293-21.44-96-21.44C92.48,256,0,279.147,0,325.333V384
				h469.333v-58.667C469.333,279.147,376.853,256,330.667,256z M245.333,352H32v-26.667C32,313.92,86.613,288,138.667,288
				s106.667,25.92,106.667,37.333V352z M437.333,352h-160v-26.667c0-9.707-4.267-18.347-11.093-26.027
				c18.88-6.4,41.92-11.307,64.427-11.307c52.053,0,106.667,25.92,106.667,37.333V352z"/>
		</g>
	</g>
</g>
<g>
</g>
<g>
</g>
<g>
</g>
<g>
</g>
<g>
</g>
<g>
</g>
<g>
</g>
<g>
</g>
<g>
</g>
<g>
</g>
<g>
</g>
<g>
</g>
<g>
</g>
<g>
</g>
<g>
</g>
</svg>
