<svg id="Layer_1" enable-background="new 0 0 510.67 510.67" height="512" viewBox="0 0 510.67 510.67" width="512" xmlns="http://www.w3.org/2000/svg"><g><path d="m314.985 210.348h30v30h-30z"/><path d="m447.489 205.639-27.504 22.873v-153.164c0-22.595-17.593-42.561-49.537-56.219-58.5-25.013-158.185-25.149-216.476.021-31.59 13.641-48.987 33.599-48.987 56.197v120.28l-41.672-35.707-63.313 63.314 104.985 96.442v155.653l10.815 4.505c30.993 12.917 73.211 30.514 141.862 30.514 1.376 0 2.766-.007 4.164-.021 76.015-.779 130.893-23.64 148.927-31.152l9.232-3.846v-123.382l90.684-83.127zm-185.504-175.291c82.418 0 128 26.608 128 45s-45.582 45-128 45c-81.775 0-127-26.608-127-45s45.226-45 127-45zm128 308.402v116.468c-12.484 4.896-27.484 10.1-45 14.497v-184.367h-30v190.517c-30.21 4.82-61.716 5.697-90 2.906v-118.423h-30v113.916c-24.526-5.008-43.871-12.333-60-18.952v-148.814l-91.64-84.183 21.54-21.54 70.1 60.065v-139.331c17.562 11.39 39.594 18.321 60 22.483v171.357h30v-166.839c45.419 4.624 103.341 1.067 145.463-16.943 7.271-3.109 13.791-6.548 19.537-10.268v171.18l55.642-46.274 21.673 21.672z"/></g></svg>